<svg width="311" height="311.07733" xmlns="http://www.w3.org/2000/svg">
 <g>
  <title>background</title>
  <rect x="-1" y="-1" width="6.816334" height="6.817531" id="canvas_background" fill="none"/>
 </g>

 <g>
  <title>Layer 1</title>
  <path d="m16.035156,311.078125c-4.097656,0 -8.195311,-1.558594 -11.308593,-4.695313c-6.250001,-6.25 -6.250001,-16.382813 0,-22.632813l279.0625,-279.0625c6.25,-6.25 16.382813,-6.25 22.632813,0s6.25,16.382813 0,22.636719l-279.058594,279.058594c-3.136719,3.117188 -7.234375,4.695313 -11.328125,4.695313zm0,0" id="svg_1" fill="#ffffff"/>
  <path d="m295.117188,311.078125c-4.097656,0 -8.191406,-1.558594 -11.308594,-4.695313l-279.082031,-279.058594c-6.250001,-6.253908 -6.250001,-16.386719 0,-22.636719s16.382812,-6.25 22.636718,0l279.058594,279.0625c6.25,6.25 6.25,16.382813 0,22.632813c-3.136719,3.117188 -7.230469,4.695313 -11.304688,4.695313zm0,0" id="svg_2" fill="#ffffff"/>
 </g>
</svg>