<svg width="0" height="0" class="hidden">
  <symbol id="fb" xmlns="http://www.w3.org/2000/svg" viewBox="0 0 864 1664">
    <path d="M864,12V276H707q-86,0-116,36T561,420V609H854L815,905H561v759H255V905H0V609H255V391q0-186,104-288.5T636,0Q783,0,864,12Z"></path>
  </symbol>
  <symbol id="mail" xmlns="http://www.w3.org/2000/svg" viewBox="0 0 395 285.54">
    <polygon points="258.81 142.77 395 265.36 395 20.18 258.81 142.77"></polygon>
    <polygon points="197.5 197.95 158.62 162.95 22.42 285.54 372.58 285.54 236.38 162.95 197.5 197.95"></polygon>
    <polygon points="0 20.18 0 265.36 136.19 142.77 0 20.18"></polygon>
    <polygon points="372.58 0 272.02 0 122.98 0 22.42 0 197.5 157.59 372.58 0"></polygon>
  </symbol>
  <symbol version="1.1" id="phone" xmlns="http://www.w3.org/2000/svg" xmlns:xlink="http://www.w3.org/1999/xlink" x="0px" y="0px" xml:space="preserve" viewBox="0 0 21 20">
    <g id="Tvar_1">
      <g id="Tvar_1-2">
        <path d="M12.79,0v1.42c3.62-0.08,6.63,2.78,6.72,6.4H21C20.9,3.4,17.24-0.1,12.82,0C12.81,0,12.8,0,12.79,0z M15,7.82h1.5
			c-0.05-2.01-1.73-3.6-3.74-3.56v1.43c1.2-0.03,2.21,0.92,2.24,2.12C15,7.81,15,7.82,15,7.82z M10.51,14.22
			c-1.93-0.87-3.5-2.39-4.43-4.29l1.47-2.11l-1.78-5H0.18C0.08,3.51,0.02,4.2,0,4.89c-0.08,3.7,1.28,7.29,3.8,10
			C6,17.21,10.15,20,17.22,20H18v-5.48l-5.22-1.71L10.51,14.22z"></path>
      </g>
    </g>
  </symbol>
</svg>
