<svg data-name="Vrstva 1" xmlns="http://www.w3.org/2000/svg" width="411.8" height="46.84"><rect id="backgroundrect" width="100%" height="100%" x="0" y="0" fill="none" stroke="none"/>
  <title>Kreslicí plátno 1</title>
  
  
  
  
  
  
  
  
  
  
<g class="currentLayer" style=""><title>Layer 1</title><path d="M2,39a17.08,17.08,0,0,0,9.62,2.9c5.12,0,9.83-3,9.83-8.48,0-3.37-1.89-5.86-6.66-8.48-5.79-3.1-9-6.73-9-11.64,0-8.08,7-13.26,15.34-13.26a17.19,17.19,0,0,1,9.29,2.35L28.4,7a14.56,14.56,0,0,0-7.81-2.15c-5.65,0-9,3.7-9,7.4s2.28,5.79,7.06,8.41c5.59,3,8.62,6.53,8.62,12.11,0,7.81-6.13,14-16.36,14-4.57-.06-9-1.48-10.9-3.16Z" fill="#ffffff" id="svg_1" class="" fill-opacity="1"/><path d="M41.73.74,33.11,46.1H27.52L36.14.74Z" fill="#ffffff" id="svg_2" class="" fill-opacity="1"/><path d="M76.25,46.1l3.23-24.5c.6-4.3,1.61-11,2.42-15.34h-.2c-2.09,4.57-4.64,10-7.07,14.6l-13.52,25H56.87L53.5,21.4c-.67-5.25-1.14-10.5-1.41-15.14h-.2c-1,4.17-2.36,11-3.44,15.34L42.26,46.1H37L48.79.74h7.13l3.57,26.05c.47,3.83.94,8,1.08,11.37h.2c1.41-3.37,3.36-7.47,5.32-11.24L80.08.74h7.34L81.63,46.1Z" fill="#ffffff" id="svg_3" class="" fill-opacity="1"/><path d="M94.22,1.35A49.35,49.35,0,0,1,104,.4c4.38,0,8.55,1.08,11.11,3.5a10.36,10.36,0,0,1,3.3,8.15A15.43,15.43,0,0,1,113,23.82c-3.5,3-8.61,4.38-13.72,4.38a32.26,32.26,0,0,1-4.65-.34L91.19,46.1H85.67Zm1.28,21.8a19.83,19.83,0,0,0,4.51.4c7.67,0,12.78-4.71,12.78-11.1,0-5.38-3.83-7.54-9-7.54a20.51,20.51,0,0,0-4.91.47Z" fill="#ffffff" id="svg_4" class="" fill-opacity="1"/><path d="M123.36.74h5.58L121.2,41.25h18.31l-.94,4.85H114.74Z" fill="#ffffff" id="svg_5" class="" fill-opacity="1"/><path d="M154.79,46.84c-11.71,0-17.23-8.82-17.23-18.44,0-8,3.16-16.82,8.68-22.28A22.28,22.28,0,0,1,161.45,0c12.18,0,17.16,8.88,17.16,18.57,0,7.88-2.89,16.56-8.28,21.94a21.6,21.6,0,0,1-15.48,6.33Zm.8-4.71A14.65,14.65,0,0,0,166,37.62c4.24-4.31,6.73-12.45,6.73-18.78s-2.09-14.13-12-14.13a14.58,14.58,0,0,0-10.37,4.51c-4.37,4.37-6.86,12.38-6.86,18.71,0,7.4,3.23,14.2,12.05,14.2Z" fill="#ffffff" id="svg_6" class="" fill-opacity="1"/><path d="M176.32,46.1,184.94.74h6.12l10.37,25.71a91.12,91.12,0,0,1,4,12.65l.14-.07a107.56,107.56,0,0,1,1.95-14.2L212.06.74h5.25L208.69,46.1h-5.52L192.81,20.46A89.4,89.4,0,0,1,188.64,7.4l-.2.07c-.48,4.24-1.22,8.75-2.36,14.94L181.57,46.1Z" fill="#ffffff" id="svg_7" class="" fill-opacity="1"/><path d="M273.75,0a24.41,24.41,0,0,0-17.16,6.59,25.71,25.71,0,0,0-5.48,7.88c0-.33,0-.67,0-1a11.52,11.52,0,0,0-5.59-10.3C241.92.87,237.07.4,233.1.4a59,59,0,0,0-12.65,1.22L212,46.1h11.17l3-15.55a34.64,34.64,0,0,0,3.63.27c5.72,0,11-1.34,14.81-4.17a15.92,15.92,0,0,0,4.09-4.4,33,33,0,0,0-.46,5.48c0,11,7.14,19.11,18.91,19.11h.07a24.49,24.49,0,0,0,17.3-6.6c5.11-5,8-12.78,8-21.13C292.59,7.74,285.66,0,273.75,0Zm-42.4,21.54a19.29,19.29,0,0,1-3.43-.27l2.22-11.58a21.49,21.49,0,0,1,3.5-.2c3.16,0,6,1.08,6,5S236.4,21.54,231.35,21.54Zm44,13A9.07,9.07,0,0,1,269,37.28h-.06c-5.66,0-8.35-3.9-8.35-9.82,0-5.12,1.88-11.71,5.12-15a9.33,9.33,0,0,1,6.72-2.89c5.93,0,8,4.51,8,9.82C280.35,24.16,278.6,31.23,275.3,34.52Z" fill="#ffffff" id="svg_8" class="" fill-opacity="1"/><path d="M376,10.5,377.88.74H339.37l-5.92,17.09c-1.82,5.25-3.64,10.64-5.25,15.68h-.14c.27-5,.47-9.82.67-15.07l.61-17.7H316.62L310.43,18c-1.95,5.45-3.84,10.77-5.65,15.88h-.14c.2-4.64.34-10.63.47-16L305.45.74H293.87l1.55,45.36h12.79l5.65-14.67c2.42-6.19,4.17-11.64,5.92-16.76h.14c-.34,5.12-.54,10.57-.54,15.88l-.07,15.55H332l17.6-40.92L341.8,46.1h27.41l1.89-9.76h-16l1.68-8.61h15.95L374.64,18H358.56L360,10.5Z" fill="#ffffff" id="svg_9" class="" fill-opacity="1"/><path d="M380.57,1.62A63,63,0,0,1,393.7.4c4.17,0,8.88.41,12.38,2.36a10.12,10.12,0,0,1,5.72,9.42c0,6.73-4.17,10.63-10,12.65l-.06.27c2.49,1.28,3.56,4,4,7.94.61,4.58,1,11.17,1.89,13.06H395.85a78.26,78.26,0,0,1-1.41-10.63C394,30.28,392.28,29,388.78,29H386.7L383.47,46.1H372.1Zm7.74,18.84h3.57c4.51,0,8-2.56,8-6.53,0-3.1-2.83-4.51-6.12-4.51a17.79,17.79,0,0,0-3.37.27Z" fill="#ffffff" id="svg_10" class="" fill-opacity="1"/></g></svg>