<svg id="Vrstva_1" data-name="Vrstva 1" xmlns="http://www.w3.org/2000/svg" viewBox="0 0 226.47 172.57">
  <title>Kreslicí plátno 1</title>
  <polygon points="157.95 0 157.95 54.99 114.47 11.51 71 54.98 71 0 157.95 0" fill="#fff"/>
  <polygon points="157.95 75.58 157.95 86.95 71 86.95 71 75.58 114.47 32.11 157.95 75.58" fill="#fff"/>
  <polygon points="157.95 75.58 157.95 86.95 71 86.95 71 75.58 114.47 32.11 157.95 75.58" fill="#fff"/>
  <g>
    <g>
      <path d="M24.24,121.18H2v3.28H17.47L1,147H24.24V143.7H7.78Z" fill="#fff"/>
      <path d="M24.74,147.48H0L16.48,125H1.54v-4.28H25.23L8.77,143.2h16ZM2,146.48H23.74V144.2H6.8l16.46-22.52H2.54V124H18.45Z" fill="#fff"/>
    </g>
    <g>
      <path d="M33,143.62v-22.4H29.28V147H44.56v-3.36Z" fill="#fff"/>
      <path d="M45.06,147.48H28.78V120.72h4.69v22.4H45.06Zm-15.28-1H44.06v-2.36H32.47v-22.4H29.78Z" fill="#fff"/>
    </g>
    <g>
      <path d="M60.13,121.07h-2.6L46.46,147h3.79l2.44-5.79.06-.13.72-1.71h0l2-4.6.11-.23,3.22-7.79,3.27,7.37.09.18,2.3,5.07h0l.84,1.86.1.24L67.9,147h3.77Z" fill="#fff"/>
      <path d="M72.44,147.48H67.57L58.81,128l-2.88,7-2.78,6.42-2.57,6.1H45.7l11.5-26.91h3.25Zm-4.22-1H70.9L59.8,121.57H57.86L47.22,146.48h2.7l5.2-12.17,3.66-8.85Z" fill="#fff"/>
    </g>
    <g>
      <path d="M70,121.18v3.28h8.84V147h3.71V124.46h9v-3.28Z" fill="#fff"/>
      <path d="M83.08,147.48H78.37V125H69.53v-4.28H92.06V125h-9Zm-3.71-1h2.71V124h9v-2.28H70.53V124h8.84Z" fill="#fff"/>
    </g>
    <g>
      <path d="M112,121.22l-7,8.88-6.9-8.88H93.71l9.52,12.13V147H107V133.35l9.52-12.13Zm-6.56-7.44L103,119.31h2.06l4.17-5.53Z" fill="#fff"/>
      <path d="M107.5,147.48h-4.77v-14l-10-12.8H98.4l6.66,8.57,6.74-8.57h5.75l-10,12.8Zm-3.77-1h2.77V133.17l9-11.45h-3.2l-7.24,9.19-7.14-9.19H94.74l9,11.45Zm1.57-26.67h-3.09l3-6.53h5.06Zm-1.54-1h1l3.41-4.53H105.8Z" fill="#fff"/>
    </g>
    <g>
      <path d="M143.53,121.22l-7.69,18.09-7.75-18.09h-3.71l11.09,25.87h.84l10.9-25.87Z" fill="#fff"/>
      <path d="M136.65,147.59h-1.5l-11.53-26.87h4.8L135.84,138l7.36-17.31H148Zm-.84-1H136l10.47-24.87h-2.58l-8,18.86-8.08-18.86h-2.62Z" fill="#fff"/>
    </g>
    <g>
      <path d="M170.15,145.13c-.55-.73-1.26-1.83-2.16-3.3a44.26,44.26,0,0,0-3.32-4.89,11.39,11.39,0,0,0-2.42-2.21,6.42,6.42,0,0,0,4.35-6.34,6.5,6.5,0,0,0-2.29-5.24,9.31,9.31,0,0,0-6.2-1.93h-6.46v3.13h4.79l1,0a10.43,10.43,0,0,1,2.9.39,3.46,3.46,0,0,1,1.81,1.39,3.94,3.94,0,0,1,.65,2.2,4.29,4.29,0,0,1-.58,2.21,3.57,3.57,0,0,1-1.63,1.44,10.11,10.11,0,0,1-3.84.49h-5.09V147h3.69V135.76h1a5.94,5.94,0,0,1,2.58.42,8.43,8.43,0,0,1,1.71,1.35,20.38,20.38,0,0,1,2.09,2.53l1.23,2,1.15,1.88.72,1,.22.31,1.13,1.7h4.38Z" fill="#fff"/>
      <path d="M172.51,147.48h-5.65l-1.28-1.92a1.25,1.25,0,0,0-.14-.2l-.79-1.12-2.39-3.92a19.88,19.88,0,0,0-2-2.43,7.84,7.84,0,0,0-1.6-1.27,5.27,5.27,0,0,0-2.34-.36h-.46v11.22h-4.69V132h5.59a9.93,9.93,0,0,0,3.63-.44,3.07,3.07,0,0,0,1.41-1.25,3.73,3.73,0,0,0,.51-2,3.46,3.46,0,0,0-.57-1.93,3,3,0,0,0-1.56-1.19,10,10,0,0,0-2.75-.36l-1,0h-5.29v-4.13h7a9.81,9.81,0,0,1,6.52,2,7,7,0,0,1,2.47,5.62,7.19,7.19,0,0,1-1.21,4.18,7,7,0,0,1-2.64,2.27,13.1,13.1,0,0,1,1.8,1.78,45.54,45.54,0,0,1,3.36,4.95c.92,1.5,1.62,2.56,2.14,3.26h0Zm-5.12-1h3.13l-.77-1c-.54-.72-1.26-1.82-2.19-3.34a46.06,46.06,0,0,0-3.27-4.83,11.11,11.11,0,0,0-2.31-2.11l-.81-.54.9-.35a5.9,5.9,0,0,0,4-5.87,6,6,0,0,0-2.11-4.86,8.91,8.91,0,0,0-5.88-1.81h-6v2.13h4.29l1,0a10.5,10.5,0,0,1,3.06.42,4,4,0,0,1,2.07,1.58,4.52,4.52,0,0,1,.73,2.48,4.8,4.8,0,0,1-.65,2.47,4.1,4.1,0,0,1-1.85,1.64,10.64,10.64,0,0,1-4,.53h-4.59v13.49h2.69V135.26h1.46a6.19,6.19,0,0,1,2.81.48,8.28,8.28,0,0,1,1.83,1.44,20.39,20.39,0,0,1,2.15,2.59l2.4,3.92.77,1.09.17.24Z" fill="#fff"/>
    </g>
    <g>
      <path d="M188.92,143.88a10.26,10.26,0,0,1-7.36-2.73,9.18,9.18,0,0,1-2.88-7,9.28,9.28,0,0,1,2.93-7,10.19,10.19,0,0,1,7.35-2.79,17.76,17.76,0,0,1,8.83,2.58v-4a23.09,23.09,0,0,0-9-2.13,13.75,13.75,0,0,0-9.89,3.84,12.54,12.54,0,0,0-4,9.46,13,13,0,0,0,1.75,6.59,12.75,12.75,0,0,0,4.76,4.77,14.37,14.37,0,0,0,7.32,1.74,19.23,19.23,0,0,0,9.37-2.22V141A16.75,16.75,0,0,1,188.92,143.88Z" fill="#fff"/>
      <path d="M188.7,147.78a14.93,14.93,0,0,1-7.57-1.81,13.14,13.14,0,0,1-4.94-5,13.46,13.46,0,0,1-1.82-6.83,13.1,13.1,0,0,1,4.16-9.82,14.3,14.3,0,0,1,10.24-4,23.69,23.69,0,0,1,9.21,2.17l.31.13v5.15l-.75-.42a17.34,17.34,0,0,0-8.58-2.52,9.64,9.64,0,0,0-7,2.66,8.8,8.8,0,0,0-2.77,6.63,8.64,8.64,0,0,0,2.72,6.61,9.85,9.85,0,0,0,7,2.59,16.38,16.38,0,0,0,8.88-2.79l.77-.5v5.27l-.26.14A19.89,19.89,0,0,1,188.7,147.78Zm.07-26.4a13.33,13.33,0,0,0-9.54,3.7,12.15,12.15,0,0,0-3.86,9.1,12.66,12.66,0,0,0,1.68,6.34,12.38,12.38,0,0,0,4.58,4.59,14.09,14.09,0,0,0,7.07,1.67,19,19,0,0,0,8.87-2V141.9a17.06,17.06,0,0,1-8.65,2.48,10.78,10.78,0,0,1-7.7-2.87,9.68,9.68,0,0,1-3-7.33,9.8,9.8,0,0,1,3.08-7.36,10.75,10.75,0,0,1,7.7-2.93,17.82,17.82,0,0,1,8.33,2.24v-2.79A22.5,22.5,0,0,0,188.77,121.38Z" fill="#fff"/>
    </g>
    <g>
      <path d="M222.28,121.22v11.14H207.8V121.22h-3.68V147h3.68V135.76h14.48V147H226V121.22Z" fill="#fff"/>
      <path d="M226.47,147.48h-4.69V136.26H208.3v11.22h-4.68V120.72h4.68v11.14h13.48V120.72h4.69Zm-3.69-1h2.69V121.72h-2.69v11.14H207.3V121.72h-2.68v24.76h2.68V135.26h15.48Z" fill="#fff"/>
    </g>
  </g>
  <g>
    <path d="M56.17,172.35H53.89l-2.19-3.67h-.28v3.67h-2v-10.8h2v0h.92a3.43,3.43,0,0,1,2.51,1,3.63,3.63,0,0,1,1.06,2.52,3.44,3.44,0,0,1-1.06,2.51,3.82,3.82,0,0,1-1.05.73Zm-4.75-5.64h.92a1.58,1.58,0,0,0,1.13-.46,1.54,1.54,0,0,0,.46-1.13,1.61,1.61,0,0,0-.46-1.14,1.58,1.58,0,0,0-1.13-.46h-.92Z" fill="#fff"/>
    <path d="M66.2,166h2.92V168H66.2v2.4h3.92v2H64.25V161.53h5.87v2H66.2Zm0-2.53v0Z" fill="#fff"/>
  </g>
  <g>
    <path d="M79.14,161.52h7.3l-4.69,8.82H86v2H78.47l4.71-8.83h-4Zm0,0v0Z" fill="#fff"/>
    <path d="M97,161.52v10.8h-2v-10.8Zm-2,0h0Z" fill="#fff"/>
    <path d="M107.33,161.52v0h1.25a5.38,5.38,0,0,1,3.81,1.57,5.4,5.4,0,0,1,0,7.63,5.39,5.39,0,0,1-3.81,1.58h-3.21v-10.8Zm-2,0h0Zm2,2v6.87h1.25a3.48,3.48,0,0,0,3.43-3.43,3.43,3.43,0,0,0-1-2.42,3.35,3.35,0,0,0-2.41-1Z" fill="#fff"/>
    <path d="M124.49,166h2.92v1.95h-2.92v2.4h3.92v2h-5.87V161.5h5.87v2h-3.92Zm0-2.53v0Z" fill="#fff"/>
    <path d="M144.5,161.54v10.74l-1.71-1.78-4-4.17v5.93h-2V161.54l1.7,1.78,4,4.16v-5.94Zm-2,0h0Z" fill="#fff"/>
    <path d="M163.37,170.05a5.73,5.73,0,1,1-4.8-8.88,5.69,5.69,0,0,1,4.62,2.36l-1.59,1.15a3.72,3.72,0,0,0-1.32-1.13,3.55,3.55,0,0,0-1.71-.42,3.79,3.79,0,0,0-3.74,3.74,3.77,3.77,0,0,0,5.54,3.3,3.85,3.85,0,0,0,1.39-1.21ZM161.76,169l1.61,1.09Z" fill="#fff"/>
    <path d="M173.61,166h2.91v1.95h-2.91v2.4h3.91v2h-5.87V161.5h5.87v2h-3.91Zm0-2.53v0Z" fill="#fff"/>
  </g>
</svg>
