<svg xmlns="http://www.w3.org/2000/svg" width="490" height="370" viewBox="0 0 490 370"><g><g><path fill="#d4ab5d" d="M3.124 263.451v-9.493h39.908l-25.988 48.663 24.942.08v9.491H.228l26.15-48.74zm61.307-9.493V302.7H86.88v9.492H53.971v-58.234zm66.858 48.1h-24.057l-4.265 10.134H91.784l25.827-59.198h3.218l25.747 59.198h-11.022zm-4.023-9.492l-8.047-18.981-7.964 18.981zm18.5-29.115v-9.493h40.552v9.493h-15.046v48.741h-10.459v-48.74zm45.859-9.493h12.23l13.517 27.75 13.517-27.75h12.231l-20.518 39.653v18.581h-10.46v-18.581zm20.356-4.663l6.196-12.388h10.54l-7.081 12.388zm52.054 4.663h11.022l15.85 38.769 15.85-38.769h11.022l-25.263 59.2h-3.217zm97.509 58.234l-15.85-24.213-7.644-.076v24.29h-10.46v-58.235h22.529c11.184 0 20.034 5.31 20.034 16.81 0 8.85-5.954 14.237-13.115 16.247l16.656 25.177zm-23.494-33.381h10.781c6.357 0 10.542-2.653 10.542-8.042 0-5.389-4.185-7.318-10.542-7.318H338.05zm70.48 34.347c-16.493 0-28.564-13.032-28.564-30.162 0-17.133 12.07-30.163 28.563-30.163 8.369 0 15.449 2.815 20.84 8.043l-7.082 7.962c-3.459-3.458-8.125-6.032-13.758-6.032-10.942 0-17.941 10.537-17.941 20.19 0 9.652 7 20.188 17.941 20.188 6.438 0 11.668-3.219 15.128-7.561l7.885 7.319c-5.552 6.513-13.598 10.216-23.013 10.216zm43.443-59.2v24.05h27.116v-24.05h10.46v58.234h-10.46V287.5h-27.116v24.693h-10.459v-58.234zm-345.166 115.12l-5.612-8.573-2.706-.029v8.601h-3.704v-20.619h7.977c3.96 0 7.094 1.879 7.094 5.953 0 3.131-2.108 5.04-4.644 5.752l5.898 8.914zm-8.318-11.82h3.817c2.251 0 3.733-.939 3.733-2.847 0-1.907-1.482-2.592-3.733-2.592H98.49zm44.98-8.8v3.36h-9.06v5.154h8.433v3.361h-8.433v5.386h9.06v3.358h-12.763v-20.619zm19.826 3.36v-3.36h14.13l-9.201 17.232 8.832.029v3.358h-14.787l9.259-17.259zm37.66-3.36v20.62h-3.705v-20.62zm29.513 0c5.299 0 10.056 3.93 10.056 10.31 0 6.352-4.757 10.31-10.056 10.31h-7.979v-20.62zm-4.275 17.26h4.075c3.531 0 6.551-2.764 6.551-6.95s-3.02-6.976-6.551-6.976h-4.075zm47.517-17.26v3.36h-9.059v5.154h8.433v3.361h-8.433v5.386h9.06v3.358h-12.764v-20.619zm24.526 7.548l-.029 13.071h-3.704v-20.96h1.14l12.62 13.387.03-13.046h3.704v20.96h-1.141zm44.297 13.413c-5.842 0-10.114-4.614-10.114-10.681 0-6.064 4.272-10.675 10.114-10.675 2.962 0 5.47.995 7.378 2.844l-2.506 2.82c-1.225-1.223-2.878-2.134-4.872-2.134-3.875 0-6.354 3.729-6.354 7.145 0 3.42 2.479 7.15 6.354 7.15 2.278 0 4.13-1.14 5.355-2.678l2.792 2.59c-1.965 2.31-4.814 3.619-8.147 3.619zm40.393-20.96v3.36h-9.059v5.153h8.432v3.361h-8.432v5.386h9.06v3.358h-12.764v-20.619zM339.002.316v117.495l-92.93-92.9-92.919 92.888V.317zm0 161.507v24.28H153.153V161.81l92.919-92.887z"/></g></g></svg>