<svg id="Vrstva_1" data-name="Vrstva 1" xmlns="http://www.w3.org/2000/svg" viewBox="0 0 390.25 78.36">
  <title>Kreslicí plátno 1</title>
  <polygon points="74.43 3.93 74.43 51 37.21 13.79 0 51 0 3.93 74.43 3.93" fill="#d5ab5d"/>
  <polygon points="74.43 68.63 74.43 78.36 0 78.36 0 68.63 37.21 31.42 74.43 68.63" fill="#d5ab5d"/>
  <polygon points="74.43 68.63 74.43 78.36 0 78.36 0 68.63 37.21 31.42 74.43 68.63" fill="#d5ab5d"/>
  <g>
    <path d="M94.21,16.16V10.38H118.5L102.68,40l15.18,0v5.78H92.45l15.91-29.67Z" fill="#d5ab5d"/>
    <path d="M131.52,10.38V40.05h13.66v5.78h-20V10.38Z" fill="#d5ab5d"/>
    <path d="M172.21,39.66H157.57L155,45.83h-6.8l15.71-36h2l15.67,36H174.8Zm-2.45-5.78-4.9-11.55L160,33.88Z" fill="#d5ab5d"/>
    <path d="M181,16.16V10.38H205.7v5.78h-9.16V45.83h-6.36V16.16Z" fill="#d5ab5d"/>
    <path d="M208.93,10.38h7.44l8.22,16.89,8.23-16.89h7.44L227.78,34.52V45.83h-6.37V34.52Zm12.38-2.84L225.08,0h6.42l-4.31,7.54Z" fill="#d5ab5d"/>
    <path d="M253,10.38h6.71L269.34,34,279,10.38h6.71l-15.38,36h-2Z" fill="#d5ab5d"/>
    <path d="M312.33,45.83l-9.64-14.74L298,31V45.83h-6.36V10.38h13.71c6.8,0,12.19,3.23,12.19,10.23,0,5.39-3.62,8.67-8,9.89l10.14,15.33ZM298,25.51h6.56c3.87,0,6.42-1.62,6.42-4.9s-2.55-4.45-6.42-4.45H298Z" fill="#d5ab5d"/>
    <path d="M340.92,46.42c-10,0-17.38-7.93-17.38-18.36s7.35-18.37,17.38-18.37a17.71,17.71,0,0,1,12.69,4.9l-4.31,4.85a11.78,11.78,0,0,0-8.38-3.67c-6.66,0-10.92,6.41-10.92,12.29s4.26,12.29,10.92,12.29a11.71,11.71,0,0,0,9.21-4.61l4.8,4.46A17.94,17.94,0,0,1,340.92,46.42Z" fill="#d5ab5d"/>
    <path d="M367.36,10.38V25h16.5V10.38h6.37V45.83h-6.37v-15h-16.5v15H361V10.38Z" fill="#d5ab5d"/>
  </g>
  <g>
    <path d="M102.17,75,98,68.68l-2,0V75H93.28V59.77h5.9c2.93,0,5.24,1.39,5.24,4.4A4.34,4.34,0,0,1,101,68.43L105.35,75ZM96,66.28h2.82c1.67,0,2.76-.7,2.76-2.11s-1.09-1.91-2.76-1.91H96Z" fill="#d5ab5d"/>
    <path d="M139.77,59.77v2.49h-6.7v3.81h6.24v2.48h-6.24v4h6.7V75h-9.44V59.77Z" fill="#d5ab5d"/>
    <path d="M164.92,62.26V59.77h10.45l-6.81,12.74,6.53,0V75H164.16L171,62.26Z" fill="#d5ab5d"/>
    <path d="M203.25,59.77V75h-2.73V59.77Z" fill="#d5ab5d"/>
    <path d="M235.56,59.77a7.63,7.63,0,0,1,0,15.25h-5.89V59.77Zm-3.15,12.76h3a5.15,5.15,0,0,0,0-10.29h-3Z" fill="#d5ab5d"/>
    <path d="M278,59.77v2.49h-6.7v3.81h6.23v2.48h-6.23v4H278V75h-9.44V59.77Z" fill="#d5ab5d"/>
    <path d="M306.66,65.35l0,9.67H303.9V59.52h.84l9.33,9.9,0-9.65h2.74v15.5H316Z" fill="#d5ab5d"/>
    <path d="M349.9,75.27c-4.32,0-7.48-3.41-7.48-7.89s3.16-7.9,7.48-7.9a7.58,7.58,0,0,1,5.45,2.1l-1.85,2.09a5.06,5.06,0,0,0-3.6-1.58c-2.87,0-4.7,2.76-4.7,5.29s1.83,5.28,4.7,5.28a5,5,0,0,0,4-2l2.06,1.92A7.73,7.73,0,0,1,349.9,75.27Z" fill="#d5ab5d"/>
    <path d="M390.25,59.77v2.49h-6.69v3.81h6.23v2.48h-6.23v4h6.69V75h-9.43V59.77Z" fill="#d5ab5d"/>
  </g>
</svg>
