<?xml version="1.0" encoding="utf-8"?>
<svg version="1.1" id="Capa_1" xmlns="http://www.w3.org/2000/svg" xmlns:xlink="http://www.w3.org/1999/xlink" x="0px" y="0px"
	 viewBox="0 0 500 500" style="enable-background:new 0 0 500 500;" xml:space="preserve" fill="#d4ab5d">
<g>
	<path d="M147.3,321.7c0-8.3-5.8-13.3-15.9-13.3c-4.2,0-7,0.4-8.4,0.8v26.6c1.7,0.4,3.9,0.5,6.8,0.5
		C140.6,336.4,147.3,330.9,147.3,321.7z"/>
	<path d="M210.2,308.7c-4.6,0-7.5,0.4-9.2,0.8v59c1.7,0.4,4.6,0.4,7.1,0.4c18.5,0.1,30.5-10,30.5-31.6
		C238.7,318.6,227.7,308.7,210.2,308.7z"/>
	<path d="M327.1,0H126.3C97,0,73.1,23.9,73.1,53.2V250h-5.2c-11.8,0-21.4,9.6-21.4,21.4v130c0,11.9,9.6,21.4,21.4,21.4h5.2v23.8
		c0,29.4,23.9,53.2,53.2,53.2h274c29.3,0,53.2-23.9,53.2-53.2V125.9L327.1,0z M102.7,294.9c6.3-1.1,15.1-1.9,27.6-1.9
		c12.6,0,21.5,2.4,27.6,7.2c5.8,4.5,9.6,12,9.6,20.9c0,8.8-2.9,16.3-8.3,21.4c-7,6.6-17.3,9.5-29.3,9.5c-2.7,0-5.1-0.1-7-0.4v32.2
		h-20.2V294.9z M400.3,467.4h-274c-11.4,0-20.6-9.3-20.6-20.6v-23.8h255.4c11.8,0,21.4-9.6,21.4-21.4v-130
		c0-11.9-9.6-21.4-21.4-21.4H105.7V53.2c0-11.3,9.3-20.6,20.6-20.6L315,32.4v69.7c0,20.4,16.5,36.9,36.9,36.9l68.3-0.2l0.8,307.9
		C420.9,458.2,411.7,467.4,400.3,467.4z M180.5,383.5v-88.6c7.5-1.2,17.3-1.9,27.6-1.9c17.1,0,28.2,3.1,36.9,9.6
		c9.4,7,15.2,18.1,15.2,34c0,17.3-6.3,29.2-15,36.5c-9.5,7.9-24,11.6-41.6,11.6C193.1,384.8,185.6,384.2,180.5,383.5z M326.6,331.1
		v16.6h-32.4v36.3h-20.5v-90.2h55.1v16.7h-34.7v20.6H326.6z"/>
</g>
</svg>
