<svg id="Layer_1" data-name="Layer 1" xmlns="http://www.w3.org/2000/svg" viewBox="0 0 512 512">
  <path d="M147.38,507.07a8.28,8.28,0,0,0,11.72,0l58.78-58.77,57.92,57.91a8.28,8.28,0,0,0,11.72,0L493.71,300a8.3,8.3,0,0,0,0-11.72L357.92,152.51,429.63,80.8a8.28,8.28,0,0,0,0-11.76L364.52,4.89a8.31,8.31,0,0,0-11.68,0L294.52,63.25,236.21,4.93a8.33,8.33,0,0,0-5.86-2.43,8.2,8.2,0,0,0-5.86,2.43L18.29,211.13a8.29,8.29,0,0,0,0,11.71L154.18,358.73,82.47,430.44a8.28,8.28,0,0,0,0,11.72Zm134.27-18.43-52.06-52.06L359.44,306.73l52.06,52.06Zm13.61-141.17L164.5,216.71,217,164.25,347.72,295Zm180.87-53.31-52.91,52.91L293.29,217.14l20-20,84.57,84.57a8.28,8.28,0,0,0,11.72,0,8.31,8.31,0,0,0,0-11.72L325,185.43l21.2-21.21ZM358.74,22.46,412,75,281.57,205.43l-52.89-52.9Zm-128.39,0L282.8,75l-130,130-52.46-52.46ZM35.87,217l20.5-20.5,83.71,83.7a8.28,8.28,0,1,0,11.72-11.71L68.09,184.76,88.6,164.25l130,130L165.89,347Zm194.48,89,53.19,53.19L153.24,489.5,100,436.3Z"/>
  <path d="M179.65,295.35a11,11,0,0,0-.62-2,11.55,11.55,0,0,0-1-1.87,11,11,0,0,0-1.34-1.64,10.59,10.59,0,0,0-1.64-1.33,10.73,10.73,0,0,0-1.86-1,11,11,0,0,0-2-.62,10.62,10.62,0,0,0-6.23.62,11.15,11.15,0,0,0-1.87,1,10.37,10.37,0,0,0-3,3,12.4,12.4,0,0,0-1,1.87,10.94,10.94,0,0,0-.61,2,10.66,10.66,0,0,0,0,4.21,10.94,10.94,0,0,0,.61,2,12.4,12.4,0,0,0,1,1.87,10.37,10.37,0,0,0,3,3,11.2,11.2,0,0,0,1.87,1,11.39,11.39,0,0,0,2,.61,10.8,10.8,0,0,0,2.12.2,10.6,10.6,0,0,0,2.1-.2,11.76,11.76,0,0,0,2-.61,11.51,11.51,0,0,0,1.86-1,10.59,10.59,0,0,0,1.64-1.33,11,11,0,0,0,1.34-1.64,11.55,11.55,0,0,0,1-1.87,11,11,0,0,0,.62-2,11.18,11.18,0,0,0,0-4.21Z"/>
  <path d="M437.41,296.89a11.31,11.31,0,0,0-.62-2,10.6,10.6,0,0,0-1-1.85,9.69,9.69,0,0,0-1.34-1.64,10.25,10.25,0,0,0-1.64-1.35,10.69,10.69,0,0,0-1.86-1,11,11,0,0,0-2-.62,10.6,10.6,0,0,0-4.2,0,11.31,11.31,0,0,0-2,.62,10.69,10.69,0,0,0-1.86,1,11.22,11.22,0,0,0-1.64,1.35,10.25,10.25,0,0,0-1.35,1.64,10.59,10.59,0,0,0-1.6,3.88,10.61,10.61,0,0,0,0,4.2,10.94,10.94,0,0,0,.61,2,10.52,10.52,0,0,0,2.34,3.51,10.48,10.48,0,0,0,1.64,1.33,10.73,10.73,0,0,0,1.86,1,10.94,10.94,0,0,0,2,.61,10.8,10.8,0,0,0,2.11.22,10.62,10.62,0,0,0,2.1-.22,10.94,10.94,0,0,0,2-.61,10.73,10.73,0,0,0,1.86-1,9.63,9.63,0,0,0,1.64-1.33,10.86,10.86,0,0,0,3.16-7.63A10.61,10.61,0,0,0,437.41,296.89Z"/>
</svg>
