<svg id="Layer_1" data-name="Layer 1" xmlns="http://www.w3.org/2000/svg" viewBox="0 0 512 512">
  <g>
    <path d="M464,296H192a8,8,0,0,0,0,16H487.26a8,8,0,0,1,8,8.58c-2.24,30.95-12,107.84-54.09,153.51C428.32,488,409.45,496,389.39,496H122.61c-20.06,0-38.93-8-51.77-21.91C28.74,428.43,19,351.54,16.75,320.58a8,8,0,0,1,8-8.58H72v88a16,16,0,0,0,16,16h72a16,16,0,0,0,16-16V296a16,16,0,0,0-16-16H88a16,16,0,0,0-16,16H24.74A24,24,0,0,0,.8,321.74c2.36,32.62,12.76,113.83,58.28,163.19C74.94,502.14,98.1,512,122.61,512H389.39c24.51,0,47.67-9.86,63.54-27.07,45.52-49.37,55.92-130.57,58.28-163.19a24.09,24.09,0,0,0-6.36-18.09c-.26-.27-.58-.47-.84-.74V216a24,24,0,0,0-24-24H400a8,8,0,0,0-8,8v24a8,8,0,0,0,8,8v16a8,8,0,0,0,8,8h32a8,8,0,0,0,8-8V232h16ZM88,296h72V400H88Zm344-56H416v-8h16Zm8-24H408v-8h72a8,8,0,0,1,8,8v80h-8V232a16,16,0,0,0-16-16Z"/>
    <path d="M504,16H472A16,16,0,0,0,456,0H336a16,16,0,0,0-16,16H288a8,8,0,0,0-8,8V56a8,8,0,0,0,8,8h16a8,8,0,0,0,0-16h-8V32h24V160a16,16,0,0,0,16,16H456a16,16,0,0,0,16-16V64h32a8,8,0,0,0,8-8V24A8,8,0,0,0,504,16ZM336,160V16H456v8h0V160ZM496,48H472V32h24Z"/>
    <path d="M8,232H280a8,8,0,0,0,8-8V192a8,8,0,0,0-8-8H249.34l6.34-21.76A8,8,0,0,0,248,152h-.41a19.6,19.6,0,0,0,.41-4v-8a20,20,0,0,0-20-20H212a20,20,0,0,0-20,20v8a19.6,19.6,0,0,0,.41,4H192a8,8,0,0,0-7.68,10.24L190.66,184H176V144a16,16,0,0,0-16-16H120a16,16,0,0,0-16,16v40H94.85a14.55,14.55,0,0,0,0-2l-6-48a16,16,0,0,0-15.87-14H72V96a8,8,0,0,0-8-8H48a8,8,0,0,0,0,16h8v16h-.94a16,16,0,0,0-15.87,14l-6,48a14.55,14.55,0,0,0,0,2H8a8,8,0,0,0-8,8v32A8,8,0,0,0,8,232Zm200-84v-8a4.05,4.05,0,0,1,4-4h16a4.05,4.05,0,0,1,4,4v8a4.05,4.05,0,0,1-4,4H212A4.05,4.05,0,0,1,208,148Zm-5.34,20h34.68l-4.67,16H207.34ZM160,144v8H120v-8Zm-40,24h40v16H120ZM55.06,136H72.94l6,48H49.06ZM16,200H272v16H16Z"/>
  </g>
</svg>
