<svg id="ikona" xmlns="http://www.w3.org/2000/svg" viewBox="0 0 22 141">
  <title>Kreslicí plátno 1</title>
  <g id="Obdélník_3" data-name="Obdélník 3">
    <polygon points="12 63 10 63 10 141 12 141 12 63 12 63" fill="#fff"/>
  </g>
  <g id="Obdélník_4" data-name="Obdélník 4">
    <path d="M11,2a9.13,9.13,0,0,1,9,9.22V21.78A9.13,9.13,0,0,1,11,31a9.13,9.13,0,0,1-9-9.22V11.22A9.13,9.13,0,0,1,11,2m0-2A11.11,11.11,0,0,0,0,11.22V21.78A11.11,11.11,0,0,0,11,33,11.11,11.11,0,0,0,22,21.78V11.22A11.11,11.11,0,0,0,11,0Z" fill="#fff"/>
  </g>
  <path d="M10.87,13.42a3.76,3.76,0,1,1,3.75-3.76A3.77,3.77,0,0,1,10.87,13.42Zm0-5.71a2,2,0,1,0,2,2A2,2,0,0,0,10.87,7.71Z" fill="#fff"/>
</svg>
